# xmcd CD database file
#
# Track frame offsets:
#	150
#	36482
#	64443
#	99884
#	158825
#	187763
#	226417
#
# Disc length: 3376 seconds
#
# Revision: 0
# Processed by: cddbd v1.5PL3 Copyright (c) Steve Scherf et al.
# Submitted via: CDex 1.51
#
DISCID=530d2e07
DTITLE=WILLIE ROSARIO and ORQUESTA en vivo! - DESDE"CALI"PARA EL MUNDO
DYEAR=1900
DGENRE=Salsa
TTITLE0=DEL BARRIO OBRERO A LA 15
TTITLE1=ESA MUNECA
TTITLE2=EL CALLEJERO
TTITLE3=LA MITAD
TTITLE4=ESA QUE YO CONOCI
TTITLE5=A MAINA
TTITLE6=POR TU AMOR
EXTD=
EXTT0=
EXTT1=
EXTT2=
EXTT3=
EXTT4=
EXTT5=
EXTT6=
PLAYORDER=
